<?xml version="1.0" encoding="utf-8"?>
<!-- Generator: Adobe Illustrator 27.5.0, SVG Export Plug-In . SVG Version: 6.00 Build 0)  -->
<svg version="1.1" xmlns="http://www.w3.org/2000/svg" xmlns:xlink="http://www.w3.org/1999/xlink" x="0px" y="0px"
	 viewBox="0 0 500 500" style="enable-background:new 0 0 500 500;" xml:space="preserve">
<g id="Background_Simple">
	<g>
		<g>
			<path style="fill:#92E3A9;" d="M329.724,53.278c0,0-75.437-26.824-149.487,15.882c-74.05,42.706-111.413,127.481-143.499,195.39
				c-32.086,67.909-13.617,136.983,42.91,168.48c56.527,31.496,94.964-14.933,174.263-17.194
				c79.299-2.26,100.626,9.076,166.428-35.721c65.802-44.797,77.697-150.593,25.789-228.874
				C394.221,72.96,329.724,53.278,329.724,53.278z"/>
		</g>
		<g style="opacity:0.7;">
			<path style="fill:#FFFFFF;" d="M329.724,53.278c0,0-75.437-26.824-149.487,15.882c-74.05,42.706-111.413,127.481-143.499,195.39
				c-32.086,67.909-13.617,136.983,42.91,168.48c56.527,31.496,94.964-14.933,174.263-17.194
				c79.299-2.26,100.626,9.076,166.428-35.721c65.802-44.797,77.697-150.593,25.789-228.874
				C394.221,72.96,329.724,53.278,329.724,53.278z"/>
		</g>
	</g>
</g>
<g id="Plants">
	<g>
		<g>
			<g>
				<g>
					<path style="fill:#92E3A9;" d="M438.155,187.381c-0.883,6.453-6.249,14.742-12.563,12.441
						c-1.032-0.373-1.943-0.965-2.836-1.587c1.861-4.522,0.413-10.413,3.77-13.884c1.839-1.916,6.096-5.278,8.662-5.002
						C438.631,179.719,438.608,183.817,438.155,187.381z"/>
					<path style="fill:#92E3A9;" d="M425.859,205.342c-3.37,4.126-7.293,7.077-14.204,5.072c-1.478-0.446-2.961-1.345-4.018-2.518
						c-1.061-1.18-1.735-2.722-1.526-4.285c0.269-2.084,2.049-3.593,4.001-4.073c1.773-0.449,3.948-0.364,6.087,0.067
						c2.241,0.458,4.44,1.273,6.124,2.278C423.814,202.779,424.819,204.088,425.859,205.342z"/>
				</g>
				<path style="fill:none;stroke:#92E3A9;stroke-linecap:round;stroke-linejoin:round;stroke-miterlimit:10;" d="M422.412,198.432
					c3.018,5.267,6.063,10.472,8.838,15.788"/>
			</g>
			<g>
				<g>
					<path style="fill:#92E3A9;" d="M454.756,218.977c-0.621,3.446-2.658,7.092-5.248,9.362c-2.586,2.279-5.734,3.231-8.664,1.656
						c-0.961-0.517-1.755-1.23-2.587-1.936c1.196-2.098,1.579-4.701,2.045-7.201c0.428-2.479,0.992-4.882,2.701-6.632
						c1.879-1.898,6.083-5.411,8.787-4.782C455.373,210.303,455.533,215.169,454.756,218.977z"/>
					<path style="fill:#92E3A9;" d="M440.273,235.454c-2.009,1.749-4.138,3.168-6.531,3.774c-2.385,0.607-5.063,0.41-8.288-0.902
						c-1.358-0.557-2.605-1.507-3.422-2.644c-0.854-1.124-1.245-2.454-0.804-3.841c0.585-1.84,2.503-3.16,4.456-3.531
						c1.774-0.34,3.872-0.145,5.918,0.432c2.137,0.6,4.249,1.614,5.715,2.833C438.636,232.646,439.426,234.072,440.273,235.454z"/>
				</g>
				<path style="fill:none;stroke:#92E3A9;stroke-linecap:round;stroke-linejoin:round;stroke-miterlimit:10;" d="M431.25,214.22
					c2.651,4.924,4.936,10.006,7.127,15.128c2.053,5.176,3.989,10.405,5.54,15.764"/>
			</g>
			<g>
				<g>
					<path style="fill:#92E3A9;" d="M466.092,254.183c-2.701,6.504-10.469,12.423-15.742,8.238c-0.864-0.678-1.542-1.52-2.193-2.378
						c0.796-0.927,1.428-2.014,1.957-3.16c0.506-1.141,0.933-2.346,1.39-3.523c0.915-2.354,1.947-4.601,3.97-5.986
						c2.216-1.495,6.972-4.118,9.55-2.991C468.336,245.902,467.522,250.675,466.092,254.183z"/>
					<path style="fill:#92E3A9;" d="M448.835,267.707c-4.595,2.803-9.228,4.135-15.078,0.211c-2.522-1.634-4.359-4.789-3.021-7.381
						c0.877-1.718,2.999-2.651,5.001-2.64c1.812,0.009,3.888,0.597,5.79,1.561c1.968,1.013,3.793,2.424,5.071,3.887
						C447.707,264.644,448.312,266.176,448.835,267.707z"/>
				</g>
				<path style="fill:none;stroke:#92E3A9;stroke-linecap:round;stroke-linejoin:round;stroke-miterlimit:10;" d="M443.917,245.111
					c3.2,10.686,5.402,21.676,7.002,32.757"/>
			</g>
			<g>
				<g>
					<path style="fill:#92E3A9;" d="M471.53,290.736c-1.872,3.229-5.107,5.892-8.374,7.016c-3.263,1.135-6.531,0.766-8.642-1.806
						c-0.714-0.843-1.187-1.801-1.68-2.759c1.923-1.498,3.202-3.774,4.46-6.046c1.241-2.304,2.492-4.292,4.683-5.392
						c2.383-1.165,7.508-3.043,9.865-1.622c1.561,0.97,1.986,2.476,1.797,4.348C473.476,286.787,472.547,288.955,471.53,290.736z"/>
					<path style="fill:#92E3A9;" d="M451.855,300.745c-5.103,1.677-9.907,1.686-14.741-3.061c-2.048-2.007-3.286-5.041-1.495-6.945
						c1.185-1.249,3.437-1.798,5.399-1.55c1.779,0.23,3.702,1.019,5.391,2.244c1.781,1.262,3.299,2.964,4.244,4.63
						C451.474,297.54,451.645,299.151,451.855,300.745z"/>
				</g>
				<path style="fill:none;stroke:#92E3A9;stroke-linecap:round;stroke-linejoin:round;stroke-miterlimit:10;" d="M450.919,277.868
					l1.081,8.334c0.333,2.704,0.427,5.452,0.45,8.217c0.027,5.53-0.372,11.086-1.101,16.585"/>
			</g>
			<g>
				<g>
					<path style="fill:#92E3A9;" d="M467.38,329.061c-2.67,2.475-6.529,4.194-9.964,4.38c-3.475,0.194-6.47-1.063-7.824-4.124
						c-0.438-1.002-0.639-2.054-0.852-3.114c4.557-1.804,7.369-7.421,12.129-8.28c2.629-0.432,8.113-0.863,9.915,1.314
						C473.206,322.148,470.295,326.388,467.38,329.061z"/>
					<path style="fill:#92E3A9;" d="M445.721,333.186c-2.661,0.069-5.185-0.227-7.42-1.282c-2.231-1.045-4.199-2.856-5.902-5.723
						c-1.444-2.444-1.788-5.685,0.517-7.251c1.545-1.034,3.868-0.927,5.657-0.065c1.627,0.78,3.199,2.172,4.497,3.85
						c1.316,1.735,2.355,3.802,2.777,5.653C446.258,330.021,445.94,331.597,445.721,333.186z"/>
				</g>
				<path style="fill:none;stroke:#92E3A9;stroke-linecap:round;stroke-linejoin:round;stroke-miterlimit:10;" d="M451.349,311.005
					c-1.469,10.991-4.335,21.837-9.099,31.764"/>
			</g>
			<g>
				<g>
					<path style="fill:#92E3A9;" d="M450.679,365.734c-1.826,0.725-3.787,1.172-5.74,1.24c-1.972,0.059-3.864-0.223-5.484-0.831
						c-3.244-1.211-5.406-3.713-5.364-7.041c0.029-1.081,0.25-2.13,0.463-3.182c2.444,0.085,4.855-0.948,7.262-1.914
						c2.365-0.987,4.739-1.91,7.139-1.539c2.628,0.458,8.004,1.762,8.909,4.545C459.125,360.759,454.555,364.141,450.679,365.734z"
						/>
					<path style="fill:#92E3A9;" d="M428.968,360.912c-2.379-1.095-4.491-2.563-6.013-4.493c-1.519-1.907-2.56-4.408-3.067-7.445
						c-0.467-2.669,0.171-5.278,2.711-5.658c1.709-0.226,3.829,0.74,5.2,2.156c1.249,1.285,2.238,3.091,2.85,5.091
						c0.579,2.022,0.793,4.323,0.421,6.129C430.792,358.341,429.858,359.617,428.968,360.912z"/>
				</g>
				<path style="fill:none;stroke:#92E3A9;stroke-linecap:round;stroke-linejoin:round;stroke-miterlimit:10;" d="M442.25,342.769
					c-2.414,4.938-5.313,9.624-8.754,13.858c-3.457,4.217-7.501,7.922-11.999,10.953"/>
			</g>
			<g>
				<g>
					<path style="fill:#92E3A9;" d="M419.399,391.052c-3.261-0.372-7.072-1.835-9.69-4.061c-2.634-2.223-4.069-5.166-2.958-8.316
						c0.365-1.035,0.946-1.949,1.555-2.85c4.538,1.809,10.426,0.212,13.938,3.549c0.928,0.927,2.376,2.346,3.536,3.883
						c1.171,1.53,1.891,3.283,1.604,4.691C427.115,391.351,423.019,391.431,419.399,391.052z"/>
					<path style="fill:#92E3A9;" d="M401.251,378.933c-4.089-3.434-6.841-7.431-5.091-14.187c0.729-2.855,3.298-5.808,6.477-5.46
						c2.095,0.239,3.635,1.988,4.15,3.934c0.472,1.766,0.421,3.938,0.038,6.076c-0.401,2.24-1.172,4.443-2.157,6.126
						C403.794,376.909,402.5,377.904,401.251,378.933z"/>
				</g>
				<path style="fill:none;stroke:#92E3A9;stroke-linecap:round;stroke-linejoin:round;stroke-miterlimit:10;" d="M421.496,367.579
					c-1.092,0.809-2.311,1.418-3.458,2.14l-3.695,2.1l-7.315,4.298c-2.422,1.425-4.838,2.833-7.284,4.151
					c-1.223,0.66-2.451,1.302-3.691,1.917c-1.227,0.6-2.492,1.205-3.802,1.888"/>
			</g>
			<g>
				<g>
					<path style="fill:#92E3A9;" d="M391.906,406.844c-1.436-0.195-3.01-0.533-4.624-1.055c-1.611-0.523-3.278-1.247-4.728-2.096
						c-2.875-1.676-5.163-4.181-4.632-7.467c0.171-1.078,0.601-2.093,1.073-3.106c4.816,1.091,10.333-0.812,13.915,2.536
						c1.976,1.754,5.338,5.953,5.383,8.427c0.021,0.816-0.175,1.4-0.529,1.819c-0.337,0.451-0.836,0.731-1.446,0.891
						C395.081,407.079,393.463,407.022,391.906,406.844z"/>
					<path style="fill:#92E3A9;" d="M372.537,397.8c-2.479-1.09-4.725-2.229-6.314-4.156c-1.59-1.94-2.43-4.577-1.771-8.662
						c0.54-3.43,3.6-7.565,7.238-7.83c2.37-0.222,4.119,1.448,4.717,3.357c0.543,1.73,0.617,4.035,0.368,6.275
						c-0.282,2.328-0.783,4.752-1.52,6.643C374.569,395.061,373.561,396.46,372.537,397.8z"/>
				</g>
				<path style="fill:none;stroke:#92E3A9;stroke-linecap:round;stroke-linejoin:round;stroke-miterlimit:10;" d="M392.252,384.073
					c-10.371,5.24-19.432,12.915-26.482,22.102l-2.146,2.974"/>
			</g>
		</g>
		<g>
			<g>
				<g>
					<path style="fill:#92E3A9;" d="M28.84,293.997c0.298,1.799,0.997,3.569,1.945,5.098c0.916,1.528,2.126,2.816,3.431,3.729
						c2.608,1.83,5.575,2.15,8.031,0.386c0.836-0.572,1.509-1.282,2.154-1.994c-1.261-1.785-1.752-4.168-2.157-6.513
						c-0.394-2.334-0.794-4.682-2.175-6.422c-1.57-1.86-4.995-5.619-7.705-4.849c-1.835,0.516-2.895,2.208-3.451,4.222
						C28.428,289.684,28.448,292.022,28.84,293.997z"/>
					<path style="fill:#92E3A9;" d="M43.536,308.021c2.079,1.236,4.202,2.074,6.454,2.228c2.272,0.173,4.586-0.386,7.202-1.581
						c2.154-1.083,3.9-2.727,2.767-4.701c-0.701-1.289-2.493-2.418-4.249-2.788c-1.581-0.332-3.504-0.263-5.251,0.288
						c-1.886,0.537-3.614,1.577-4.854,2.771C44.575,305.314,44.008,306.664,43.536,308.021z"/>
				</g>
				<path style="fill:none;stroke:#92E3A9;stroke-linecap:round;stroke-linejoin:round;stroke-miterlimit:10;" d="M44.842,301.351
					c-1.74,5.64-2.527,11.134-2.597,15.823"/>
			</g>
			<g>
				<g>
					<path style="fill:#92E3A9;" d="M25.956,332.351c2.286,2.63,5.697,4.476,8.816,4.862c3.145,0.396,5.94-0.588,7.347-3.3
						c0.45-0.887,0.707-1.836,0.972-2.784c-4.035-1.94-6.1-7.383-10.28-8.776c-2.333-0.705-7.25-1.846-9.107,0.064
						C21.19,325.005,23.476,329.537,25.956,332.351z"/>
					<path style="fill:#92E3A9;" d="M45.418,337.674c2.416,0.215,4.726,0.094,6.816-0.742c2.085-0.829,3.969-2.382,5.684-4.865
						c0.738-1.044,1.225-2.297,1.306-3.414c0.097-1.11-0.259-2.126-1.223-2.85c-1.315-0.953-3.412-1.047-5.119-0.443
						c-1.541,0.546-3.081,1.634-4.394,3.027c-1.325,1.444-2.422,3.229-2.909,4.891C45.105,334.752,45.304,336.212,45.418,337.674z"
						/>
				</g>
				<path style="fill:none;stroke:#92E3A9;stroke-linecap:round;stroke-linejoin:round;stroke-miterlimit:10;" d="M42.245,317.174
					c-0.124,5.017,0.431,10.051,1.409,14.984c1.04,4.938,2.521,9.794,4.381,14.516"/>
			</g>
			<g>
				<g>
					<path style="fill:#92E3A9;" d="M37.77,366.082c2.836,1.564,6.549,2.232,9.643,1.71c3.103-0.518,5.573-2.182,6.148-5.177
						c0.196-0.987,0.164-1.973,0.113-2.956c-4.415-0.691-8.101-5.038-12.521-4.756c-2.413,0.188-7.344,1.002-8.469,3.334
						C31.195,361.36,34.65,364.419,37.77,366.082z"/>
					<path style="fill:#92E3A9;" d="M57.777,365.37c4.808-0.784,8.794-2.694,10.514-8.816c0.714-2.588,0.274-5.786-2.168-6.743
						c-1.604-0.641-3.635-0.054-5.029,1.109c-1.263,1.052-2.374,2.654-3.125,4.428c-0.812,1.86-1.253,3.917-1.269,5.685
						C56.701,362.591,57.252,363.983,57.777,365.37z"/>
				</g>
				<path style="fill:none;stroke:#92E3A9;stroke-linecap:round;stroke-linejoin:round;stroke-miterlimit:10;" d="M48.035,346.674
					c3.724,9.453,8.799,18.382,14.419,26.952"/>
			</g>
			<g>
				<g>
					<path style="fill:#92E3A9;" d="M55.082,393.881c2.793,0.913,6.351,1.058,9.368,0.309c3.01-0.756,5.481-2.445,5.859-5.487
						c0.119-0.993,0.008-1.988-0.143-2.975c-4.453-0.32-8.669-3.913-12.95-2.778c-2.333,0.633-6.957,2.448-7.728,4.809
						C48.479,390.91,52.027,392.887,55.082,393.881z"/>
					<path style="fill:#92E3A9;" d="M74.672,391.333c4.772-0.833,9.083-2.352,10.096-9.367c0.419-2.951-0.763-6.746-3.496-7.66
						c-1.812-0.612-3.75,0.236-4.942,1.624c-1.085,1.259-1.893,3.06-2.399,4.99c-0.532,2.017-0.737,4.178-0.595,5.99
						C73.462,388.518,74.113,389.907,74.672,391.333z"/>
				</g>
				<path style="fill:none;stroke:#92E3A9;stroke-linecap:round;stroke-linejoin:round;stroke-miterlimit:10;" d="M62.454,373.626
					c5.597,8.572,11.952,16.909,16.582,26.47"/>
			</g>
			<g>
				<g>
					<path style="fill:#92E3A9;" d="M66.564,416.467c2.157,1.171,5.23,2.288,8.26,2.827c2.98,0.504,6.039,0.292,7.659-2.322
						c0.549-0.857,0.801-1.822,1.055-2.823c-2.032-1.023-3.687-2.655-5.507-3.944c-1.794-1.298-3.683-2.259-5.848-2.064
						c-2.403,0.177-7.154,1.374-8.551,3.126C61.755,413.547,64.229,415.121,66.564,416.467z"/>
					<path style="fill:#92E3A9;" d="M85.175,421.399c2.298,0.854,4.507,1.626,6.761,1.354c2.234-0.279,4.563-1.647,6.527-5.245
						c1.701-3.027,1.853-8.267-0.661-10.675c-1.641-1.614-3.789-1.403-5.302-0.347c-1.374,0.957-2.662,2.609-3.75,4.395
						c-1.17,1.891-2.129,3.934-2.768,5.741C85.453,418.211,85.376,419.816,85.175,421.399z"/>
				</g>
				<path style="fill:none;stroke:#92E3A9;stroke-linecap:round;stroke-linejoin:round;stroke-miterlimit:10;" d="M79.04,400.1
					c2.31,4.77,4.12,9.85,5.07,15.15c0.6,3.38,2.98,9.06,5.25,22.78"/>
			</g>
		</g>
	</g>
</g>
<g id="Table_1_">
	<g>
		<g>
			<g>
				<g id="freepik--Table--inject-2">
					<polygon style="fill:#FFFFFF;stroke:#263238;stroke-linecap:round;stroke-linejoin:round;stroke-miterlimit:10;" points="
						412.35,391.406 412.35,451.812 403.497,451.812 400.373,391.072 					"/>
					<polygon style="fill:#263238;stroke:#263238;stroke-linecap:round;stroke-linejoin:round;stroke-miterlimit:10;" points="
						415.188,378.827 415.188,393.797 51.844,392.542 51.844,378.746 40.266,378.746 40.266,377.572 					"/>
					
						<rect x="51.844" y="377.572" style="fill:#FFFFFF;stroke:#263238;stroke-linecap:round;stroke-linejoin:round;stroke-miterlimit:10;" width="85.146" height="14.97"/>
					
						<rect x="40.264" y="373.492" style="fill:#FFFFFF;stroke:#263238;stroke-linecap:round;stroke-linejoin:round;stroke-miterlimit:10;" width="385.592" height="5.256"/>
					
						<rect x="40.266" y="373.49" style="fill:#FFFFFF;stroke:#263238;stroke-linecap:round;stroke-linejoin:round;stroke-miterlimit:10;" width="84.367" height="5.256"/>
				</g>
				<polygon style="fill:#FFFFFF;stroke:#263238;stroke-linecap:round;stroke-linejoin:round;stroke-miterlimit:10;" points="
					54.653,392.843 54.653,451.764 62.62,451.764 65.432,392.542 				"/>
				<polygon style="fill:#FFFFFF;stroke:#263238;stroke-linecap:round;stroke-linejoin:round;stroke-miterlimit:10;" points="
					143.577,392.876 143.577,451.915 134.725,451.915 131.6,392.542 				"/>
			</g>
			<polygon style="fill:#BFBFBF;stroke:#263238;stroke-linecap:round;stroke-linejoin:round;stroke-miterlimit:10;" points="
				405.649,373.548 299.806,451.917 249.097,451.917 136.277,373.548 			"/>
			<polygon style="fill:#BFBFBF;stroke:#263238;stroke-linecap:round;stroke-linejoin:round;stroke-miterlimit:10;" points="
				47.639,373.545 82.45,450.852 118.643,373.545 			"/>
		</g>
		<g>
			<g>
				<path style="fill:#FFFFFF;stroke:#263238;stroke-linecap:round;stroke-linejoin:round;stroke-miterlimit:10;" d="
					M318.886,304.715c-8.648,10.114-25.212,9.454-25.212,9.454c14.732-3.077,31.002-18.688,14.966-24.844
					c-16.034-6.156-24.001,24.844-24.001,24.844s-11.852-33.859-24.604-22.206c-12.753,11.653,15.634,22.866,15.634,22.866
					c-8.97,0.659-23.989-8.575-23.989-8.575l-3.958,5.497c13.853,9.674,36.917,6.551,36.917,6.551
					c19.547,4.352,38.249-7.651,38.249-7.651L318.886,304.715z M264.653,296.141c5.057-3.078,12.972,13.631,12.972,13.631
					S259.596,299.218,264.653,296.141z M291.476,309.772c0,0,6.203-17.809,14.204-14.511
					C313.682,298.559,291.476,309.772,291.476,309.772z"/>
				<path style="opacity:0.2;fill:#FFFFFF;stroke:#263238;stroke-linecap:round;stroke-linejoin:round;stroke-miterlimit:10;" d="
					M318.886,304.715c-8.648,10.114-25.212,9.454-25.212,9.454c14.732-3.077,31.002-18.688,14.966-24.844
					c-16.034-6.156-24.001,24.844-24.001,24.844s-11.852-33.859-24.604-22.206c-12.753,11.653,15.634,22.866,15.634,22.866
					c-8.97,0.659-23.989-8.575-23.989-8.575l-3.958,5.497c13.853,9.674,36.917,6.551,36.917,6.551
					c19.547,4.352,38.249-7.651,38.249-7.651L318.886,304.715z M264.653,296.141c5.057-3.078,12.972,13.631,12.972,13.631
					S259.596,299.218,264.653,296.141z M291.476,309.772c0,0,6.203-17.809,14.204-14.511
					C313.682,298.559,291.476,309.772,291.476,309.772z"/>
				<g>
					<path style="fill:none;stroke:#263238;stroke-linecap:round;stroke-linejoin:round;stroke-miterlimit:10;" d="M266.308,295.762
						c-2.155,0-4.273,0.984-5.145,2.008c-0.872,1.024-1.347,2.378-1.304,3.723"/>
					<path style="fill:#FFFFFF;stroke:#263238;stroke-linecap:round;stroke-linejoin:round;stroke-miterlimit:10;" d="
						M275.513,305.778c0.745,1.616,2.765,5.947,3.956,7.269"/>
					<path style="fill:none;stroke:#263238;stroke-linecap:round;stroke-linejoin:round;stroke-miterlimit:10;" d="M289.743,312.647
						c1.733-3.312,3.4-7.319,5.968-11.483"/>
					<path style="fill:none;stroke:#263238;stroke-linecap:round;stroke-linejoin:round;stroke-miterlimit:10;" d="M275.376,314.55
						c1.341,0.384,2.71,0.675,4.091,0.871"/>
					<path style="fill:none;stroke:#263238;stroke-linecap:round;stroke-linejoin:round;stroke-miterlimit:10;" d="M289.801,314.82
						c0.901-0.215,2.972-0.436,3.873-0.651"/>
				</g>
				
					<rect x="246.391" y="318.302" style="fill:#92E3A9;stroke:#263238;stroke-linecap:round;stroke-linejoin:round;stroke-miterlimit:10;" width="76.497" height="54.687"/>
				<polygon style="fill:#263238;stroke:#263238;stroke-linecap:round;stroke-linejoin:round;stroke-miterlimit:10;" points="
					258.93,318.302 246.391,337.642 246.391,325.504 251.06,318.302 				"/>
				<polygon style="fill:#263238;stroke:#263238;stroke-linecap:round;stroke-linejoin:round;stroke-miterlimit:10;" points="
					288.941,318.302 253.527,372.989 246.391,372.989 246.391,371.922 281.072,318.302 				"/>
				<polygon style="fill:#263238;stroke:#263238;stroke-linecap:round;stroke-linejoin:round;stroke-miterlimit:10;" points="
					318.886,318.302 283.539,372.989 275.67,372.989 311.016,318.302 				"/>
				<polygon style="fill:#263238;stroke:#263238;stroke-linecap:round;stroke-linejoin:round;stroke-miterlimit:10;" points="
					322.888,346.379 322.888,358.517 313.551,372.989 305.681,372.989 				"/>
			</g>
			
				<ellipse style="fill:#FFFFFF;stroke:#263238;stroke-linecap:round;stroke-linejoin:round;stroke-miterlimit:10;" cx="284.639" cy="313.798" rx="5.265" ry="4.027"/>
			<path style="fill:none;stroke:#263238;stroke-linecap:round;stroke-linejoin:round;stroke-miterlimit:10;" d="M277.834,304.728
				c1.253,1.857,2.195,3.923,2.774,6.087"/>
			<path style="fill:none;stroke:#263238;stroke-linecap:round;stroke-linejoin:round;stroke-miterlimit:10;" d="M289.905,305.778
				c-0.589,1.326-1.967,3.797-2.208,5.228"/>
			<path style="fill:none;stroke:#263238;stroke-linecap:round;stroke-linejoin:round;stroke-miterlimit:10;" d="M269.763,308.546
				c2.889,1.76,5.891,3.335,8.981,4.714"/>
		</g>
		<g>
			<g>
				<g>
					<g>
						
							<rect x="171.83" y="303.386" style="fill:#FFFFFF;stroke:#263238;stroke-linecap:round;stroke-linejoin:round;stroke-miterlimit:10;" width="5.602" height="23.788"/>
						<path style="fill:#FFFFFF;stroke:#263238;stroke-linecap:round;stroke-linejoin:round;stroke-miterlimit:10;" d="
							M175.987,291.049c0,0,6.243,11.134-1.305,11.906c-3.281,0.336-6.893-3.296-2.364-6.693
							C173.863,295.104,175.109,292.98,175.987,291.049z"/>
					</g>
					
						<rect x="137.285" y="324.834" style="fill:#FFFFFF;stroke:#263238;stroke-linecap:round;stroke-linejoin:round;stroke-miterlimit:10;" width="75.405" height="34.907"/>
					<g>
						<path style="fill:#92E3A9;stroke:#263238;stroke-linecap:round;stroke-linejoin:round;stroke-miterlimit:10;" d="
							M134.698,324.752v14.944c0,1.129,2.302,1.819,4.081,1.223l9.205-3.084c0.91-0.305,2.068-0.287,2.944,0.045l4.492,1.7
							c4.324,1.636,10.058,1.694,14.492,0.146l5.311-1.854c0.929-0.324,2.131-0.306,3.025,0.045l3.052,1.198
							c4.76,1.87,11.26,1.774,15.825-0.232l2.037-0.896c0.888-0.39,2.139-0.432,3.109-0.103l8.916,3.019
							c1.779,0.602,4.091-0.087,4.091-1.219v-14.93c0-0.795-1.196-1.44-2.671-1.44h-75.238
							C135.894,323.313,134.698,323.957,134.698,324.752z"/>
					</g>
				</g>
				<polygon style="fill:#263238;stroke:#263238;stroke-linecap:round;stroke-linejoin:round;stroke-miterlimit:10;" points="
					221.239,367.717 128.736,367.717 119.04,359.74 230.935,359.74 				"/>
				
					<rect x="137.285" y="367.717" style="fill:#263238;stroke:#263238;stroke-linecap:round;stroke-linejoin:round;stroke-miterlimit:10;" width="75.405" height="4.957"/>
				<path style="fill:#263238;stroke:#263238;stroke-linecap:round;stroke-linejoin:round;stroke-miterlimit:10;" d="
					M175.676,296.057c0,0,2.395,5.326-1.507,6.412C174.169,302.469,170.758,300.968,175.676,296.057z"/>
				<g>
					
						<ellipse style="fill:#BFBFBF;stroke:#263238;stroke-linecap:round;stroke-linejoin:round;stroke-miterlimit:10;" cx="141.464" cy="320.489" rx="4.18" ry="3.191"/>
					
						<ellipse style="fill:#BFBFBF;stroke:#263238;stroke-linecap:round;stroke-linejoin:round;stroke-miterlimit:10;" cx="149.823" cy="320.489" rx="4.18" ry="3.191"/>
					
						<ellipse style="fill:#BFBFBF;stroke:#263238;stroke-linecap:round;stroke-linejoin:round;stroke-miterlimit:10;" cx="158.182" cy="320.489" rx="4.18" ry="3.191"/>
					
						<ellipse style="fill:#BFBFBF;stroke:#263238;stroke-linecap:round;stroke-linejoin:round;stroke-miterlimit:10;" cx="166.541" cy="320.489" rx="4.18" ry="3.191"/>
					
						<ellipse style="fill:#BFBFBF;stroke:#263238;stroke-linecap:round;stroke-linejoin:round;stroke-miterlimit:10;" cx="174.9" cy="320.489" rx="4.18" ry="3.191"/>
					
						<ellipse style="fill:#BFBFBF;stroke:#263238;stroke-linecap:round;stroke-linejoin:round;stroke-miterlimit:10;" cx="183.259" cy="320.489" rx="4.18" ry="3.191"/>
					
						<ellipse style="fill:#BFBFBF;stroke:#263238;stroke-linecap:round;stroke-linejoin:round;stroke-miterlimit:10;" cx="191.618" cy="320.489" rx="4.18" ry="3.191"/>
					
						<ellipse style="fill:#BFBFBF;stroke:#263238;stroke-linecap:round;stroke-linejoin:round;stroke-miterlimit:10;" cx="199.977" cy="320.489" rx="4.18" ry="3.191"/>
					<path style="fill:#BFBFBF;stroke:#263238;stroke-linecap:round;stroke-linejoin:round;stroke-miterlimit:10;" d="
						M212.516,320.489c0,1.762-1.871,3.191-4.18,3.191c-2.308,0-4.18-1.428-4.18-3.191c0-1.762,1.871-3.19,4.18-3.19
						C210.645,317.299,212.516,318.727,212.516,320.489z"/>
				</g>
				<g>
					<path style="fill:none;stroke:#263238;stroke-linecap:round;stroke-linejoin:round;stroke-miterlimit:10;" d="M148.505,342.984
						c-1.412,2.309-2.781,6.235-2.861,8.555c-0.025,0.729,0.84,1.129,1.38,0.638l5.399-4.901c0.419-0.38,1.087-0.056,1.047,0.508
						l-0.324,4.663l1.751-1.56c-0.191,0.972-0.381,1.994,0.095,2.922c0.185,0.36,0.481,0.664,0.854,0.821
						c0.913,0.383,1.628-0.2,2.212-0.775c1.24-1.222,2.324-2.604,3.215-4.1"/>
					<path style="fill:none;stroke:#263238;stroke-linecap:round;stroke-linejoin:round;stroke-miterlimit:10;" d="M206.569,343.413
						c-0.693,2.309-2.811,6.235-4.725,8.555c-0.602,0.729-1.731,1.129-1.803,0.638l-0.715-4.901
						c-0.055-0.38-0.941-0.056-1.388,0.508l-3.7,4.663l-0.257-1.56c-0.659,0.972-1.362,1.994-2.59,2.922
						c-0.477,0.36-1.007,0.664-1.48,0.821c-1.159,0.383-1.311-0.2-1.349-0.775c-0.082-1.223,0.116-2.604,0.586-4.1"/>
					<path style="fill:none;stroke:#263238;stroke-linecap:round;stroke-linejoin:round;stroke-miterlimit:10;" d="M162.535,347.835
						c0.607-0.388,1.027-1.003,1.552-1.496c0.624-0.587,1.554-1.025,2.33-0.457c0.31,0.227,0.509,0.577,0.609,0.949
						c0.312,1.166-0.28,2.225-0.31,3.348c-0.016,0.625,0.178,1.299,0.684,1.667c0.632,0.459,1.541,0.29,2.203-0.126
						c0.918-0.577,1.527-1.54,2.391-2.195c0.864-0.655,2.266-0.889,2.926-0.029c0.225,0.293,0.323,0.666,0.531,0.971
						c0.561,0.82,1.797,0.916,2.69,0.482s1.524-1.257,2.121-2.051c-0.524,0.619-0.136,1.676,0.601,2.015
						c0.737,0.339,1.63,0.102,2.297-0.36c0.667-0.462,1.167-1.119,1.71-1.722c0.878-0.975,1.893-1.827,3.003-2.527
						c0.749-0.472,1.735-0.011,1.836,0.868l0,0c0-0.125,0-0.249,0-0.373"/>
				</g>
			</g>
			<path style="fill:none;stroke:#263238;stroke-linecap:round;stroke-linejoin:round;stroke-miterlimit:10;" d="M198.679,332.225
				c3.224-1.502,6.674-2.829,10.009-1.831"/>
			<path style="fill:none;stroke:#263238;stroke-linecap:round;stroke-linejoin:round;stroke-miterlimit:10;" d="M160.811,330.872
				c0.899-0.192,1.792-0.464,2.664-0.737c2.806-0.88,5.631-1.802,8.562-2.05c2.931-0.248,6.027,0.242,8.411,1.964
				c1.795,1.296,3.11,3.223,5.055,4.279c2.813,1.527,6.144,0.884,9.221-0.314"/>
			<path style="fill:none;stroke:#263238;stroke-linecap:round;stroke-linejoin:round;stroke-miterlimit:10;" d="M157.617,331.079
				c0.506,0.071,0.818,0.079,1.327,0.053"/>
			<path style="fill:none;stroke:#263238;stroke-linecap:round;stroke-linejoin:round;stroke-miterlimit:10;" d="M141.376,333.995
				c3.399-2.589,7.437-5.328,11.593-4.337c1.017,0.243,1.971,0.703,2.96,1.041"/>
		</g>
	</g>
</g>
<g id="Graphics">
	<g>
		
			<line style="fill:none;stroke:#263238;stroke-linecap:round;stroke-linejoin:round;" x1="240.538" y1="246.116" x2="247.613" y2="224.909"/>
		
			<line style="fill:none;stroke:#263238;stroke-linecap:round;stroke-linejoin:round;" x1="275.101" y1="279.919" x2="256.256" y2="273.632"/>
		
			<line style="fill:none;stroke:#263238;stroke-linecap:round;stroke-linejoin:round;" x1="276.452" y1="257.446" x2="255.75" y2="261.68"/>
		
			<line style="fill:none;stroke:#263238;stroke-linecap:round;stroke-linejoin:round;" x1="266.391" y1="237.312" x2="249.914" y2="251.92"/>
	</g>
	<g>
		
			<line style="fill:none;stroke:#263238;stroke-linecap:round;stroke-linejoin:round;stroke-miterlimit:10;stroke-dasharray:1.9842,1.9842;" x1="202.129" y1="246.564" x2="209.97" y2="249.416"/>
		
			<line style="fill:none;stroke:#263238;stroke-linecap:round;stroke-linejoin:round;stroke-miterlimit:10;stroke-dasharray:1.9842,1.9842;" x1="231.529" y1="149.372" x2="231.529" y2="244.11"/>
		
			<line style="fill:none;stroke:#263238;stroke-linecap:round;stroke-linejoin:round;stroke-miterlimit:10;stroke-dasharray:1.9842,1.9842;" x1="205.693" y1="197.852" x2="221.634" y2="244.11"/>
	</g>
</g>
<g id="Character">
	<g>
		<g>
			<g>
				<g id="freepik--Character--inject-2">
					<path style="fill:#FFFFFF;stroke:#263238;stroke-linecap:round;stroke-linejoin:round;stroke-miterlimit:10;" d="
						M311.698,167.069c14.043-3.471,38.223-5.627,44.781-1.406c6.558,4.221,12.997,29.898,12.997,31.298
						c0,1.4-1.277,20.971,0.36,29.63c0.902,4.97,4.528,9.455,6.425,14.136c0,0-4.438-0.463-16.144,3.274
						c-11.706,3.738-21.879,14.225-21.879,14.225l-6.018-13.686c0,0-8.206,3.338-15.626,2.545l-1.359-2.545l-7.77-23.201
						c-1.961-0.763-3.722-1.964-5.148-3.511c-2.811-2.811,3.047-11.232,3.274-12.87c0.227-1.637-2.347-3.047-2.811-5.384
						c-0.155-0.779-0.18-1.975-0.145-3.222c0.088-3.145,0.011-6.291-0.36-9.415C301.539,180.715,301.693,169.542,311.698,167.069z"
						/>
					<path style="fill:#263238;stroke:#263238;stroke-linecap:round;stroke-linejoin:round;stroke-miterlimit:10;" d="
						M305.288,196.832c0.74-1.4,3.511,0,4.684,0s0.473-1.637-2.574-2.574c-3.047-0.937-3.747,1.637-3.747,1.637
						C303.888,197.532,304.548,198.232,305.288,196.832z"/>
					<path style="fill:none;stroke:#263238;stroke-linecap:round;stroke-linejoin:round;stroke-miterlimit:10;" d="M307.612,221.38
						c0,0-0.937-2.811-1.874-6.085c-0.937-3.274,0.589-5.801,0.589-5.801"/>
					<g>
						<g>
							<g>
								<g>
									<g>
										<g>
											<g>
												<path style="fill:#263238;stroke:#263238;stroke-miterlimit:10;" d="M257.644,294.623H240.86
													c-1.617,0-3.688-1.322-4.625-2.939l-11.43-19.802l-6.016-10.414l-4.631-8.102c-0.937-1.627-1.871-3.653,0.795-3.633
													h17.928c0.217,0,0.441,0.06,0.671,0.069c1.582,0.062,2.362,0.736,3.055,1.63c0.565,0.729,1.056,1.512,1.515,2.312
													l21.214,36.959C260.273,292.32,259.271,294.623,257.644,294.623z"/>
												<g>
													<path style="fill:#92E3A9;" d="M256.882,291.859h-14.634c-1.579,0-3.598-1.28-4.51-2.859l-20.597-35.675
														c-1.824-2.721-0.371-2.859,1.208-2.859h14.634c2.472-0.04,3.274,0.851,4.51,2.859L258.09,289
														C259.002,290.579,258.461,291.859,256.882,291.859z"/>
												</g>
											</g>
										</g>
										<path style="fill:#263238;" d="M231.094,252.854h-7.109c-1.183,0-2.697-0.959-3.38-2.143l-0.193-0.333h11.395l0.192,0.333
											C232.683,251.894,232.277,252.854,231.094,252.854z"/>
										<g>
											<path style="fill:#FFFFFF;" d="M223.584,251.521c0.176,0.305,0.071,0.551-0.233,0.551s-0.694-0.247-0.87-0.551
												s-0.071-0.551,0.233-0.551C223.019,250.97,223.408,251.217,223.584,251.521z"/>
											<path style="fill:#FFFFFF;" d="M228.696,252.182h-3.089c-0.264,0-0.6-0.214-0.753-0.477l-0.086-0.148
												c-0.152-0.263-0.062-0.477,0.202-0.477h3.089c0.264,0,0.6,0.214,0.753,0.477l0.086,0.148
												C229.05,251.969,228.959,252.182,228.696,252.182z"/>
										</g>
									</g>
								</g>
							</g>
							<polygon style="opacity:0.2;fill:#FFFFFF;" points="229.686,249.733 224.805,271.882 224.736,272.178 218.72,261.754 
								218.789,261.468 221.758,249.733 							"/>
							<polygon style="opacity:0.2;fill:#FFFFFF;" points="250.387,274.768 252.992,279.28 250.684,288.903 250.397,290.111 
								246.492,290.111 246.798,288.903 							"/>
						</g>
						<path style="fill:#FFFFFF;stroke:#263238;stroke-linecap:round;stroke-linejoin:round;stroke-miterlimit:10;" d="
							M328.158,337.362c-3.112,12.762-21.948,34.619-29.893,43.881l-0.028,0.031c-1.822,2.133-3.063,3.53-3.392,3.9
							c-0.057,0.062-0.085,0.092-0.085,0.092s0,0-0.01,0c-1.488,1.408-3.015,2.383-4.393,2.463
							c-5.357,0.304-22.925-9.991-30.971-33.838c-5.06-14.997-14.013-43.806-14.013-43.806s-8.501-2.302-11.899-3.93
							c-3.178-1.559-5.701-4.182-7.127-7.427c-0.87-2.509-1.07-10.002-1.07-10.002c-4.605-4.771-2.1-8.01-3.49-12.324
							c-0.922-2.863,3.203-4.809,3.203-4.809l3.85,6.699l9.426,6.558c0,0-1.864-2.889-3.178-4.707
							c-1.323-1.808-3.4-7.077-1.647-9.878c1.742-2.811,4.496-0.128,6.067,2.843c1.581,2.971,8.647,12.819,11.175,14.652
							c2.529,1.834,4.804,9.147,7.487,16.986c2.683,7.829,27.961,44.124,27.961,44.124l17.39-38.153
							C303.519,310.718,332.105,321.138,328.158,337.362z"/>
						<g>
							<path style="fill:#FFFFFF;stroke:#263238;stroke-linecap:round;stroke-linejoin:round;stroke-miterlimit:10;" d="
								M298.236,381.274c-1.054,1.408-2.217,2.792-3.392,3.9C295.173,384.804,296.415,383.407,298.236,381.274z"/>
							
								<line style="fill:none;stroke:#263238;stroke-linecap:round;stroke-linejoin:round;stroke-miterlimit:10;" x1="225.311" y1="276.949" x2="230.748" y2="279.636"/>
						</g>
					</g>
					<g>
						<defs>
							<path id="XMLID_1_" d="M385.423,248.274h-9.913c-4.403,0-44.327,15.015-44.327,15.015c1.387-3.442,3.237-6.689,5.502-9.656
								c5.153-6.298,11.888-11.192,19.553-14.211c10.466-4.297,17.347-2.688,17.347-2.688
								C380.194,237.275,385.423,248.274,385.423,248.274z"/>
						</defs>
						<use xlink:href="#XMLID_1_"  style="overflow:visible;fill:#92E3A9;"/>
						<clipPath id="XMLID_00000018205582047453596230000014235744447154217137_">
							<use xlink:href="#XMLID_1_"  style="overflow:visible;"/>
						</clipPath>
						<g style="clip-path:url(#XMLID_00000018205582047453596230000014235744447154217137_);">
							<path style="opacity:0.2;" d="M346.247,249.533c-0.614,1.373-1.019,3.082-0.134,4.298c0.71,0.975,2.063,1.293,3.254,1.106
								c1.191-0.188,2.269-0.79,3.333-1.357c9.101-4.843,19.25-7.706,29.54-8.334c-2.242-5.331-8.647-7.905-14.415-7.485
								C360.282,238.31,349.483,242.296,346.247,249.533z"/>
						</g>
						
							<use xlink:href="#XMLID_1_"  style="overflow:visible;fill:none;stroke:#263238;stroke-linecap:round;stroke-linejoin:round;stroke-miterlimit:10;"/>
					</g>
					<path style="fill:#263238;stroke:#263238;stroke-linecap:round;stroke-linejoin:round;stroke-miterlimit:10;" d="
						M425.374,451.852l-4.271-43.15H318.326h0c-3.839,0-4.894,8.54-4.894,8.54s-66.692-5.74-113.897,11.347
						c-9.189,3.326-15.294,13.071-15.294,22.843l0,0L425.374,451.852z"/>
					<path style="fill:none;stroke:#263238;stroke-linecap:round;stroke-linejoin:round;stroke-miterlimit:10;" d="M318.689,417.577
						"/>
					<path style="fill:none;stroke:#263238;stroke-linecap:round;stroke-linejoin:round;stroke-miterlimit:10;" d="M336.114,438.287
						"/>
					<g>
						<defs>
							<path id="XMLID_2_" d="M291.636,324.878c7.216-16.966,14.603-39.503,15.544-43.392c2.308-9.536,10.532-12.169,19.733-16.114
								c9.201-3.945,29.901-16.104,44.042-19.063c14.142-2.959,29.38,1.061,44.378,12.201c5.446,4.046,13.852,18.329,14.838,30.488
								c0.986,12.159-1.446,48.363-6.203,81.568c-2.553,17.815-0.837,42.058-6.093,48.961c-5.256,6.903-25.559,11.856-45.933,10.869
								c-20.374-0.986-29.25-5.917-38.125-11.509c-8.876-5.592-16.439-12.169-16.439-15.453c0-3.284,5.256-10.848,7.229-16.104
								c1.972-5.256,6.578-44.378,6.578-44.378l-9.329,10.741C297.072,350.273,291.636,324.878,291.636,324.878z"/>
						</defs>
						<use xlink:href="#XMLID_2_"  style="overflow:visible;fill:#92E3A9;"/>
						<clipPath id="XMLID_00000167395807241903313640000013487179207641507242_">
							<use xlink:href="#XMLID_2_"  style="overflow:visible;"/>
						</clipPath>
						<g style="clip-path:url(#XMLID_00000167395807241903313640000013487179207641507242_);">
							<path style="opacity:0.2;" d="M319.589,273.716c-2.728,1.004-4.087,4.217-3.967,7.122c0.12,2.905,1.37,5.622,2.404,8.339
								c1.682,4.422,2.836,9.046,3.427,13.74c0.326,2.583,0.194,5.763-2.073,7.042c-1.835,1.036-4.271,0.172-5.674-1.399
								s-2.02-3.674-2.596-5.7c1.489,9.09,2.977,18.179,4.466,27.269c-2.432,0.691-5.076-0.63-6.68-2.585
								c-1.604-1.954-2.387-4.435-3.136-6.85c0.144,6.341,0.289,12.682,0.434,19.023c0.027,1.191,0.022,2.486-0.704,3.431
								c-0.726,0.945-2.464,1.134-2.986,0.062c3.21,4.298,6.987,8.946,12.303,9.669c6.427,0.875,11.918-4.308,16.321-9.072
								c7.785-8.424,15.949-17.628,17.412-29.004c1.109-8.626-1.966-17.478-7.297-24.349c-5.331-6.871-12.76-11.894-20.692-15.46
								L319.589,273.716z"/>
						</g>
						<g style="clip-path:url(#XMLID_00000167395807241903313640000013487179207641507242_);">
							<path style="opacity:0.2;" d="M381.032,254.218c-13.703-1.84-28.451,2.584-37.791,12.778c-2.006,2.19-3.81,4.661-6.36,6.184
								s-6.18,1.789-8.242-0.347c8.66,6.003,17.006,13.088,21.678,22.533c4.672,9.445,4.896,21.716-1.824,29.832
								c-1.673,2.021-3.709,3.724-5.324,5.792c-1.615,2.068-2.815,4.669-2.406,7.26c0.409,2.591,2.912,4.93,5.485,4.42
								c-1.414,0.256-2.828,0.512-4.242,0.769c2.099-0.055,3.999,1.997,3.784,4.086c-1.892-0.491-3.784-0.982-5.675-1.474
								c1.207,1.427,2.414,2.853,3.621,4.28c-2.136,0.26-4.272,0.52-6.408,0.779c2.39,4.382,4.779,8.763,7.169,13.145
								c-2.606-1.098-5.212-2.196-7.818-3.295c4.543,19.262,15.622,36.921,30.989,49.392c-7.596,0.732-15.466-2.625-20.195-8.615
								c-0.404,3.248,2.129,6.007,4.023,8.677c1.894,2.67,3.091,6.784,0.585,8.89c-1.543,1.297-3.809,1.16-5.788,0.777
								c-5.062-0.982-9.893-3.136-14.007-6.246c10.393,11.401,26.855,14.772,42.234,15.99c7.018,0.556,14.141,0.789,21.04-0.615
								c6.898-1.404,13.62-4.582,18.212-9.918c5.014-5.827,7.068-13.693,7.52-21.367c0.452-7.674-0.54-15.351-0.859-23.032
								c-1.237-29.784,7.644-59.587,3.986-89.172c-2.16,16.471-8.162,32.426-17.394,46.236c3.667-5.486,5.148-14.365,6.513-20.723
								c1.58-7.357,2.454-14.867,2.6-22.391c0.088-4.544,1.032-10.931-0.856-15.24c-2.19-5-8.564-8.856-13.005-11.594
								C395.812,258.022,388.577,255.231,381.032,254.218z"/>
						</g>
						
							<use xlink:href="#XMLID_2_"  style="overflow:visible;fill:none;stroke:#263238;stroke-linecap:round;stroke-linejoin:round;stroke-miterlimit:10;"/>
					</g>
					
						<line style="fill:none;stroke:#263238;stroke-linecap:round;stroke-linejoin:round;stroke-miterlimit:10;" x1="331.184" y1="342.954" x2="347.623" y2="323.23"/>
					
						<line style="fill:none;stroke:#263238;stroke-linecap:round;stroke-linejoin:round;stroke-miterlimit:10;" x1="349.99" y1="320.38" x2="352.554" y2="317.313"/>
				</g>
				<g>
					<path style="fill:#263238;" d="M309.589,204.588c0.156,1.191-0.308,2.234-1.038,2.33c-0.729,0.096-1.447-0.792-1.603-1.983
						c-0.156-1.191,0.308-2.234,1.038-2.33C308.715,202.509,309.433,203.397,309.589,204.588z"/>
					<g>
						<path style="fill:#FFFFFF;stroke:#263238;stroke-linecap:round;stroke-linejoin:round;stroke-miterlimit:10;" d="
							M310.488,227.898c3.441-0.754,6.543-2.99,8.633-6.225c0.786,4.539-0.126,8.009-0.722,9.374
							c-0.596,1.365-1.846,2.377-3.175,2.091c-0.848-0.183-1.6-0.848-2.262-1.558c-0.655-0.702-1.262-1.47-1.811-2.291
							L310.488,227.898z"/>
					</g>
					<g>
						<path style="fill:#263238;stroke:#263238;stroke-linecap:round;stroke-linejoin:round;stroke-miterlimit:10;" d="
							M375.495,201.585c-1.331,7.021-4.327,17.848-5.659,24.869c-8.599,1.962-13.275,3.123-22.028,4.218
							c-7.495,0.937-15.115-15.684-17.482-21.058c-0.533,0.237-2.651-10.317-6.182-13.769c-1.016-0.996-2.249-1.795-3.057-2.958
							c-1.588-2.308-1.282-5.611-1.933-8.294c-0.118-0.493-0.266-0.976-0.473-1.42c-0.02,0.03-0.03,0.059-0.039,0.099
							c-0.099,0.049-0.207,0.099-0.316,0.138c-8.047,3.787-18.362,2.081-24.763-4.112c-1.469-1.42-2.781-3.136-3.116-5.158
							c-0.444-2.633,0.838-5.217,2.081-7.594c1.795-3.422,3.718-6.992,6.933-9.142c2.554-1.706,5.651-2.337,8.668-2.939
							c8.274-1.637,16.587-3.274,25.009-3.678c3.738-0.178,8.047,0.148,10.315,3.126c0.986,1.282,1.706,3.126,3.314,3.363
							c1.213,0.178,2.298-0.68,3.442-1.114c3.284-1.223,6.716,1.174,9.398,3.432c6.834,5.74,14.013,11.992,16.538,20.561
							C378.177,187.078,376.846,194.494,375.495,201.585z"/>
						<path style="fill:#FFFFFF;stroke:#263238;stroke-linecap:round;stroke-linejoin:round;stroke-miterlimit:10;" d="
							M331.789,219.404c4.448,1.173,7.948-5.168,7.722-10.296c-0.227-5.128-2.801-10.986-6.548-8.875
							c-3.747,2.11-3.037,9.595-3.037,9.595"/>
						<path style="fill:#263238;stroke:#263238;stroke-linecap:round;stroke-linejoin:round;stroke-miterlimit:10;" d="
							M319.155,184.593c-0.217-0.099-0.394-0.276-0.483-0.523l-0.345-0.661c0.108-0.039,0.217-0.089,0.316-0.138
							c0.01-0.04,0.02-0.069,0.039-0.099C318.889,183.617,319.036,184.1,319.155,184.593z"/>
					</g>
					<path style="fill:none;stroke:#263238;stroke-linecap:round;stroke-linejoin:round;stroke-miterlimit:10;" d="M332.098,222.775
						c2.036,3.8,1.445,8.595-0.562,12.41c-2.008,3.815-5.254,6.818-8.584,9.555"/>
					<path style="fill:none;stroke:#263238;stroke-linecap:round;stroke-linejoin:round;stroke-miterlimit:10;" d="M339.294,235.562
						c1.044,5.17,0.942,11.067-0.404,15.686"/>
					<path style="fill:none;stroke:#263238;stroke-linecap:round;stroke-linejoin:round;stroke-miterlimit:10;" d="M302.758,315.972
						c-0.198-11.693,1.378-23.414,4.659-34.639"/>
					<path style="fill:none;stroke:#263238;stroke-linecap:round;stroke-linejoin:round;stroke-miterlimit:10;" d="M345.503,291.23
						c1.843,2.77,3.539,5.656,5.217,8.52"/>
					<path style="fill:none;stroke:#263238;stroke-linecap:round;stroke-linejoin:round;stroke-miterlimit:10;" d="M314.752,274.178
						c7.684-1.931,15.929,1.335,21.891,6.554c2.474,2.165,4.628,4.63,6.589,7.262"/>
					<path style="fill:none;stroke:#263238;stroke-linecap:round;stroke-linejoin:round;stroke-miterlimit:10;" d="M310.04,299.016
						c0.759,11.727,3.075,23.354,6.884,34.471"/>
					<path style="fill:none;stroke:#263238;stroke-linecap:round;stroke-linejoin:round;stroke-miterlimit:10;" d="M309.805,287.159
						c-0.055,2.171-0.055,4.342-0.003,6.513"/>
					<path style="fill:none;stroke:#263238;stroke-linecap:round;stroke-linejoin:round;stroke-miterlimit:10;" d="M342.251,313.997
						c-4.077,9.056-9.032,17.715-14.773,25.818"/>
					<path style="fill:none;stroke:#263238;stroke-linecap:round;stroke-linejoin:round;stroke-miterlimit:10;" d="M338.092,340.798
						c5.579,2.747,11.157,5.494,16.736,8.241c0.353,0.174,0.731,0.371,0.905,0.724c0.528,1.068-1.138,1.839-2.329,1.82
						c-6.278-0.099-12.495-2.489-17.223-6.62"/>
					<path style="fill:none;stroke:#263238;stroke-linecap:round;stroke-linejoin:round;stroke-miterlimit:10;" d="M333.706,349.82
						c3.615,5.354,7.741,10.362,12.299,14.94"/>
					<path style="fill:none;stroke:#263238;stroke-linecap:round;stroke-linejoin:round;stroke-miterlimit:10;" d="M421.752,300.09
						c-3.732,19.914-11.376,39.096-22.416,56.087"/>
					<path style="fill:none;stroke:#263238;stroke-linecap:round;stroke-linejoin:round;stroke-miterlimit:10;" d="M423.612,287.159
						c-0.209,2.076-0.46,4.147-0.753,6.213"/>
					<path style="fill:none;stroke:#263238;stroke-linecap:round;stroke-linejoin:round;stroke-miterlimit:10;" d="M406.361,331.584
						c-9.37,13.953-21.075,26.334-34.481,36.472c0.399-0.352,0.798-0.704,1.198-1.055"/>
					<path style="fill:none;stroke:#263238;stroke-linecap:round;stroke-linejoin:round;stroke-miterlimit:10;" d="M429.438,318.71
						c-0.878,14.69-6.502,34.563-14.251,47.075c0.115-0.435,0.229-0.87,0.344-1.306"/>
					<path style="fill:none;stroke:#263238;stroke-linecap:round;stroke-linejoin:round;stroke-miterlimit:10;" d="M286.988,346.84
						c-2.98,5.798-3.331,12.885-0.94,18.949"/>
					<path style="fill:none;stroke:#263238;stroke-linecap:round;stroke-linejoin:round;stroke-miterlimit:10;" d="M235.258,271.163
						c-0.355,1.235-0.999,2.92,0.282,3.016c0,0,0.86-1.291,2.09-1.027"/>
					<path style="fill:none;stroke:#263238;stroke-linecap:round;stroke-linejoin:round;stroke-miterlimit:10;" d="M243.445,281.93
						c2.381,1.348,5.692,3.572,7.236,5.831"/>
				</g>
				<path style="fill:none;stroke:#263238;stroke-linecap:round;stroke-linejoin:round;stroke-miterlimit:10;" d="M222.136,277.802
					c1.877,2.869,4.301,7.179,7.461,8.51c1.933,3.799,4.168,3.799,4.168,3.799"/>
				<path style="fill:none;stroke:#263238;stroke-linecap:round;stroke-linejoin:round;stroke-miterlimit:10;" d="M225.275,288.727
					c0.378,0.937,1.784,3.891,3.568,3.891"/>
				<path style="fill:none;stroke:#263238;stroke-linecap:round;stroke-linejoin:round;stroke-miterlimit:10;" d="M225.685,295.048
					c0.667,1.622,2.063,2.717,2.623,3.245"/>
			</g>
			<g>
				<g>
					<path style="fill:#263238;stroke:#263238;stroke-linecap:round;stroke-linejoin:round;stroke-miterlimit:10;" d="
						M440.901,328.959c5.038,0,9.362,2.092,9.661,4.704l4.372,38.146c0.267,2.326-2.86,4.229-6.986,4.229h-92.967
						c-4.126,0-7.213-1.904-6.899-4.229l5.154-38.146l0,0c0.353-2.612,4.72-4.704,9.758-4.704H440.901L440.901,328.959z"/>
					<path style="fill:#636363;stroke:#263238;stroke-linecap:round;stroke-linejoin:round;stroke-miterlimit:10;" d="
						M448.791,328.959c5.038,0,9.405,2.092,9.758,4.704l5.154,38.146c0.314,2.326-2.773,4.229-6.899,4.229h-92.967
						c-4.126,0-7.252-1.904-6.986-4.229l4.372-38.146l0,0c0.299-2.612,4.623-4.704,9.661-4.704H448.791L448.791,328.959z"/>
				</g>
				
					<rect x="384.954" y="355.707" style="fill:#FFFFFF;stroke:#263238;stroke-linecap:round;stroke-linejoin:round;stroke-miterlimit:10;" width="8.316" height="96.188"/>
				
					<rect x="433.063" y="355.797" style="fill:#FFFFFF;stroke:#263238;stroke-linecap:round;stroke-linejoin:round;stroke-miterlimit:10;" width="8.316" height="96.099"/>
				
					<rect x="380.381" y="352.499" style="fill:#FFFFFF;stroke:#263238;stroke-linecap:round;stroke-linejoin:round;stroke-miterlimit:10;" width="18.374" height="9.724"/>
				
					<rect x="428.034" y="352.499" style="fill:#FFFFFF;stroke:#263238;stroke-linecap:round;stroke-linejoin:round;stroke-miterlimit:10;" width="18.374" height="9.724"/>
			</g>
			<g>
				<path style="fill:none;stroke:#BFBFBF;stroke-linecap:round;stroke-linejoin:round;stroke-miterlimit:10;" d="M316.744,419.339
					c3.749,8.171,9.047,15.628,15.529,21.857"/>
				<path style="fill:none;stroke:#BFBFBF;stroke-linecap:round;stroke-linejoin:round;stroke-miterlimit:10;" d="M194.665,440.515
					c-0.062,4.036,2,8.046,5.319,10.344"/>
				<path style="fill:none;stroke:#BFBFBF;stroke-linecap:round;stroke-linejoin:round;stroke-miterlimit:10;" d="M323.778,418.312
					c9.815,9.872,23.396,15.904,37.301,16.568"/>
				<path style="fill:none;stroke:#BFBFBF;stroke-linecap:round;stroke-linejoin:round;stroke-miterlimit:10;" d="M401.84,434.711
					c0.91,8.41,0.25,14.52-0.82,16.5"/>
				<path style="fill:none;stroke:#BFBFBF;stroke-linecap:round;stroke-linejoin:round;stroke-miterlimit:10;" d="M395.368,436.101
					c14.206-2.715,21.691-5.923,27.283-14.572"/>
			</g>
			<path style="fill:none;stroke:#BFBFBF;stroke-linecap:round;stroke-linejoin:round;stroke-miterlimit:10;" d="M357.036,162.366
				c0.117,0.212,0.234,0.423,0.35,0.635c2.809,2.369,5.464,4.921,7.943,7.633c3.852,4.214,7.407,9.122,8.032,14.797
				c0.343,3.109-0.243,6.315-1.663,9.103"/>
			<path style="fill:none;stroke:#BFBFBF;stroke-linecap:round;stroke-linejoin:round;stroke-miterlimit:10;" d="M341.634,188.218
				c-0.668,5.556,3.516,11.264,9.016,12.3"/>
			<path style="fill:none;stroke:#BFBFBF;stroke-linecap:round;stroke-linejoin:round;stroke-miterlimit:10;" d="M350.051,178.535
				c-0.399,9.014,2.96,18.137,9.109,24.74"/>
			<path style="fill:none;stroke:#BFBFBF;stroke-linecap:round;stroke-linejoin:round;stroke-miterlimit:10;" d="M365.394,186.372
				c1.367,5.354,1.555,11.006,0.545,16.439"/>
			<path style="fill:none;stroke:#BFBFBF;stroke-linecap:round;stroke-linejoin:round;stroke-miterlimit:10;" d="M312.371,176.345
				c2.543,5.104,7.763,8.776,13.426,9.444"/>
			<path style="fill:none;stroke:#BFBFBF;stroke-linecap:round;stroke-linejoin:round;stroke-miterlimit:10;" d="M319.115,176.349
				c2.53,4.077,7.245,6.704,12.043,6.708"/>
			<path style="fill:none;stroke:#BFBFBF;stroke-linecap:round;stroke-linejoin:round;stroke-miterlimit:10;" d="M325.655,174.155
				c1.547,3.016,4.608,5.205,7.962,5.694"/>
		</g>
		<g>
			<path style="fill:#263238;stroke:#263238;stroke-linecap:round;stroke-linejoin:round;stroke-miterlimit:10;" d="
				M319.066,246.453c2.133-0.694,4.146-1.72,5.94-3.067c0.065-0.049,0.121-0.092,0.166-0.127c0.01-0.01,0.01-0.01,0.02-0.01
				c1.46-1.124,2.959-2.544,4.319-4.349c0.02-0.03,0.039-0.049,0.059-0.079c1.607-2.14,2.859-6.29,3.845-9.604l-1.307,15.089
				c0,0-6.125,3.315-15.208,2.852L319.066,246.453z"/>
		</g>
	</g>
</g>
<g id="Friend_1">
	<g>
		<g>
			<path style="fill:#FFFFFF;stroke:#263238;stroke-linecap:round;stroke-linejoin:round;stroke-miterlimit:10;" d="M178.934,207.82
				H51.382c-5.826,0-10.549,4.723-10.549,10.549v0.013v32.945c0,5.828,4.721,10.555,10.549,10.562h113.056
				c7.101,0,14-2.208,19.758-6.278c2.077-1.469,4.153-2.941,6.319-4.275l9.897-6.099l-10.915-5.902v-20.977
				C189.482,212.533,184.757,207.82,178.934,207.82z"/>
			
				<line style="fill:none;stroke:#263238;stroke-width:2;stroke-linecap:round;stroke-linejoin:round;" x1="86.711" y1="220.396" x2="111.478" y2="220.396"/>
			
				<line style="fill:none;stroke:#263238;stroke-linecap:round;stroke-linejoin:round;" x1="86.711" y1="231.121" x2="138.713" y2="231.121"/>
			
				<line style="fill:none;stroke:#263238;stroke-linecap:round;stroke-linejoin:round;" x1="86.711" y1="239.984" x2="138.713" y2="239.984"/>
			
				<line style="fill:none;stroke:#263238;stroke-linecap:round;stroke-linejoin:round;" x1="86.711" y1="249.778" x2="112.307" y2="249.778"/>
		</g>
		<g>
			<path style="fill:#92E3A9;stroke:#263238;stroke-linecap:round;stroke-linejoin:round;stroke-miterlimit:10;" d="M79.383,235.246
				c0,12.899-8.609,23.786-20.404,27.218c-0.69,0.207-1.39,0.385-2.101,0.533c-1.893,0.394-3.856,0.602-5.858,0.602
				c-3.737,0-7.298-0.72-10.562-2.051c-0.355-0.128-0.71-0.276-1.055-0.434c-4.605-2.071-8.56-5.335-11.459-9.408
				c-3.323-4.635-5.276-10.325-5.276-16.459c0-1.814,0.168-3.59,0.503-5.306c2.475-13.136,14.004-23.057,27.849-23.057
				C66.691,206.884,79.383,219.576,79.383,235.246z"/>
			<g>
				
					<path style="fill:#FFFFFF;stroke:#263238;stroke-width:0.75;stroke-linecap:round;stroke-linejoin:round;stroke-miterlimit:10;" d="
					M58.979,262.464c-0.69,0.207-1.39,0.385-2.101,0.533c-1.893,0.394-3.856,0.602-5.858,0.602c-3.737,0-7.298-0.72-10.562-2.051
					c-0.099-0.207-0.197-0.414-0.286-0.641c1.016-1.598,1.963-3.797,2.436-6.085c1.104-5.355,0.414-11.213,0.414-11.213l13.57,2.416
					C57.105,252.958,58.22,258.963,58.979,262.464z"/>
				
					<path style="fill:#263238;stroke:#263238;stroke-width:0.75;stroke-linecap:round;stroke-linejoin:round;stroke-miterlimit:10;" d="
					M57.785,255.01L57.785,255.01c-0.326,1.622-1.998,2.574-3.566,2.048c-1.654-0.555-3.757-1.497-5.691-3.062
					c-5.326-4.312-5.326-12.301-5.326-12.301S54.488,250.572,57.785,255.01z"/>
				<g>
					
						<path style="fill:#263238;stroke:#263238;stroke-width:0.75;stroke-linecap:round;stroke-linejoin:round;stroke-miterlimit:10;" d="
						M46.582,249.519l-11.763-18.878c0,0-6.094-2.523-2.834-5.782c0,0-5.244-9.07,1.559-9.07c0,0,0.876-7.37,7.454-4.393
						c0,0,5.727-6.803,9.554-1.842c0,0,7.858-3.827,9.882,0.992c0,0,5.739,0,5.511,4.252c0,0,3.605,4.819-1.146,5.386
						c0,0,1.264,3.827-4.365,3.827c-5.63,0-12.574,6.885-12.574,6.885l-1.417,7.081L46.582,249.519z"/>
					
						<path style="fill:#FFFFFF;stroke:#263238;stroke-width:0.75;stroke-linecap:round;stroke-linejoin:round;stroke-miterlimit:10;" d="
						M63.707,222.019l2.2,6.829c0.232,0.721,0.296,1.486,0.187,2.235l-0.295,2.017l1.114,4.502c0.059,0.237,0.098,0.466,0.122,0.709
						c0.233,2.365,1.152,14.975-5.514,16.602c-5.91,1.442-13.093-4.977-15.693-7.563c-0.649-0.645-1.161-1.404-1.528-2.242
						l-1.492-3.401c0,0-2.903,0.535-4.28-2.184c-1.377-2.719-3.189-4.324-0.519-6.233c2.67-1.909,4.367,1.961,4.367,1.961
						s-0.084-4.873,0.546-6.331c0.556-1.285,2.836-3.167,3.403-4.446c0.311-0.7,0.554-3.012,0.554-3.012s9.123,0.245,15.606-2.23
						L63.707,222.019z"/>
					
						<path style="fill:#FFFFFF;stroke:#263238;stroke-width:0.75;stroke-linecap:round;stroke-linejoin:round;stroke-miterlimit:10;" d="
						M63.707,222.019l2.2,6.829c0.232,0.721,0.296,1.486,0.187,2.235l-0.295,2.017l1.114,4.502c0.059,0.237,0.098,0.466,0.122,0.709
						c0.233,2.365,1.152,14.975-5.514,16.602c-5.91,1.442-13.093-4.977-15.693-7.563c-0.649-0.645-1.161-1.404-1.528-2.242
						l-1.492-3.401c0,0-2.903,0.535-4.28-2.184c-1.377-2.719-3.189-4.324-0.519-6.233c2.67-1.909,4.367,1.961,4.367,1.961
						s-0.084-4.873,0.546-6.331c0.556-1.285,2.836-3.167,3.403-4.446c0.311-0.7,0.554-3.012,0.554-3.012s9.123,0.245,15.606-2.23
						L63.707,222.019z"/>
					<g>
						
							<path style="fill:none;stroke:#263238;stroke-width:0.75;stroke-linecap:round;stroke-linejoin:round;stroke-miterlimit:10;" d="
							M59.463,234.445l3.341,5.384c0.471,0.759,0.058,1.756-0.812,1.959l-2.952,0.689"/>
						
							<path style="fill:none;stroke:#263238;stroke-width:0.75;stroke-linecap:round;stroke-linejoin:round;stroke-miterlimit:10;" d="
							M60.338,248.669c-2.694,3.592-5.181-4.194-5.181-4.194c2.058,1.63,4.647,1.859,5.917,0.715
							C61.073,245.191,61.241,247.465,60.338,248.669z"/>
						<path style="fill:#263238;" d="M54.949,236.302c0.131,0.794,0.545,1.388,0.925,1.325c0.38-0.063,0.582-0.757,0.451-1.552
							c-0.131-0.794-0.545-1.388-0.925-1.325C55.02,234.813,54.818,235.508,54.949,236.302z"/>
						<path style="fill:#263238;" d="M62.407,235.073c0.131,0.795,0.545,1.388,0.925,1.326c0.38-0.063,0.582-0.757,0.451-1.552
							c-0.131-0.794-0.545-1.388-0.925-1.325C62.478,233.583,62.276,234.278,62.407,235.073z"/>
						
							<path style="fill:none;stroke:#263238;stroke-width:0.75;stroke-linecap:round;stroke-linejoin:round;stroke-miterlimit:10;" d="
							M65.526,230.249c0,0-0.706-2.508-3.412-1.447"/>
						
							<path style="fill:none;stroke:#263238;stroke-width:0.75;stroke-linecap:round;stroke-linejoin:round;stroke-miterlimit:10;" d="
							M56.551,229.394c0,0-3.119,0.044-3.932,2.725"/>
					</g>
					
						<path style="fill:#263238;stroke:#263238;stroke-width:0.75;stroke-linecap:round;stroke-linejoin:round;stroke-miterlimit:10;" d="
						M44.088,221.338c0,0,7.475,5.454,8.359,1.515c0,0,6.22,1.492,6.641-0.606c0,0,6.219,2.49,6.897,0.563
						c0.678-1.927-4.965-7.078-4.965-7.078l-13.145,1.667L44.088,221.338z"/>
					<g>
						<path style="fill:none;stroke:#7F7F7F;stroke-width:0.75;stroke-linecap:round;stroke-linejoin:round;" d="M55.416,212.853"/>
					</g>
				</g>
			</g>
		</g>
		<g>
			<g>
				
					<rect x="150.658" y="230.171" style="fill:#FFFFFF;stroke:#263238;stroke-linecap:round;stroke-linejoin:round;stroke-miterlimit:10;" width="27.971" height="22.164"/>
				<polygon style="fill:#263238;" points="155.243,230.171 150.658,238.01 150.658,233.09 152.365,230.171 				"/>
				<polygon style="fill:#263238;" points="166.216,230.171 153.268,252.335 150.658,252.335 150.658,251.902 163.339,230.171 				
					"/>
				<polygon style="fill:#263238;" points="177.166,230.171 164.241,252.335 161.364,252.335 174.288,230.171 				"/>
				<polygon style="fill:#263238;" points="178.629,241.55 178.629,246.47 175.215,252.335 172.337,252.335 				"/>
			</g>
			<path style="fill:#263238;" d="M177.166,224.664c-3.162,4.099-9.219,3.832-9.219,3.832c5.387-1.247,11.336-7.574,5.472-10.069
				c-5.863-2.495-8.776,10.069-8.776,10.069s-4.334-13.723-8.996-9c-4.663,4.723,5.716,9.268,5.716,9.268
				c-3.28,0.267-8.771-3.475-8.771-3.475l-1.447,2.228c5.066,3.921,13.499,2.655,13.499,2.655
				c7.147,1.764,13.985-3.101,13.985-3.101L177.166,224.664z M157.336,221.189c1.849-1.247,4.743,5.525,4.743,5.525
				S155.487,222.436,157.336,221.189z M167.143,226.714c0,0,2.268-7.218,5.194-5.881
				C175.263,222.169,167.143,226.714,167.143,226.714z"/>
			
				<ellipse style="fill:#FFFFFF;stroke:#263238;stroke-linecap:round;stroke-linejoin:round;stroke-miterlimit:10;" cx="164.644" cy="228.346" rx="1.925" ry="1.632"/>
		</g>
	</g>
</g>
<g id="Friend_2">
	<g>
		<g>
			<path style="fill:#FFFFFF;stroke:#263238;stroke-linecap:round;stroke-linejoin:round;stroke-miterlimit:10;" d="
				M193.903,126.848H55.351c-5.826,0-10.549,4.723-10.549,10.549c0,0.004,0,0.008,0,0.013v32.945
				c0,5.828,4.721,10.555,10.549,10.562h136.626l12.488,13.231v-56.763C204.451,131.561,199.726,126.848,193.903,126.848z"/>
			
				<line style="fill:none;stroke:#263238;stroke-width:2;stroke-linecap:round;stroke-linejoin:round;" x1="96.68" y1="139.424" x2="127.447" y2="139.424"/>
			
				<line style="fill:none;stroke:#263238;stroke-linecap:round;stroke-linejoin:round;" x1="96.68" y1="150.15" x2="146.762" y2="150.15"/>
			
				<line style="fill:none;stroke:#263238;stroke-linecap:round;stroke-linejoin:round;" x1="96.68" y1="159.012" x2="145.812" y2="159.012"/>
			
				<line style="fill:none;stroke:#263238;stroke-linecap:round;stroke-linejoin:round;" x1="96.68" y1="168.806" x2="144.861" y2="168.806"/>
		</g>
		<g>
			<path style="fill:#92E3A9;stroke:#263238;stroke-linecap:round;stroke-linejoin:round;stroke-miterlimit:10;" d="M89.053,153.795
				c0,15.66-12.692,28.352-28.362,28.352c-9.526,0-17.948-4.694-23.076-11.893c-3.323-4.635-5.276-10.325-5.276-16.459
				c0-1.815,0.168-3.59,0.503-5.306c2.475-13.136,14.004-23.057,27.849-23.057C76.361,125.433,89.053,138.125,89.053,153.795z"/>
			<g>
				
					<path style="fill:#263238;stroke:#263238;stroke-width:0.75;stroke-linecap:round;stroke-linejoin:round;stroke-miterlimit:10;" d="
					M75.957,155.077c-0.365,10.868-8.284,23.076-12.948,24.457c-4.389,1.312-14.704-6.321-15.887-7.219c0,0,0,0-0.01-0.01
					c-0.029-0.02-0.059-0.04-0.069-0.049c-0.02-0.01-0.029-0.02-0.029-0.02s0,0-0.01,0c0,0-0.01,0.01-0.01,0
					c-0.03,0-0.089,0.01-0.168,0.02c-0.917,0.049-4.98,0.168-9.211-2.002c-3.323-4.635-5.276-10.325-5.276-16.459
					c0-1.815,0.168-3.59,0.503-5.306c2.544-5.611,6.775-11.065,11.844-14.438c11.203-7.456,22.632,1.154,22.632,1.154
					C79.754,136.123,76.312,144.199,75.957,155.077z"/>
				<g>
					<defs>
						<path id="XMLID_4_" d="M55.939,173.693c0,0-2.925,3.73-2.765,7.44l0,0c-1.052-0.279-2.769-0.904-3.694-1.29
							c-1.136-0.474-5.115-2.008-9.404-6.596l0,0c0,0,4.158-5.673,5.639-14.542C47.195,149.835,55.939,173.693,55.939,173.693z"/>
					</defs>
					<use xlink:href="#XMLID_4_"  style="overflow:visible;fill:#FFFFFF;"/>
					<clipPath id="XMLID_00000127001891631279889340000001483714524878765206_">
						<use xlink:href="#XMLID_4_"  style="overflow:visible;"/>
					</clipPath>
					
						<path style="clip-path:url(#XMLID_00000127001891631279889340000001483714524878765206_);fill:#263238;stroke:#263238;stroke-width:0.75;stroke-linecap:round;stroke-linejoin:round;stroke-miterlimit:10;" d="
						M45.387,162.74c0.238,4.506,1.443,6.406,5.2,10.234c4.333,4.414,7.175,7.89,13.498,0c4.196-5.236,5.493-8.574,5.894-10.234
						H45.387z"/>
					
						<use xlink:href="#XMLID_4_"  style="overflow:visible;fill:none;stroke:#263238;stroke-width:0.75;stroke-linecap:round;stroke-linejoin:round;stroke-miterlimit:10;"/>
				</g>
				
					<path style="fill:#FFFFFF;stroke:#263238;stroke-width:0.75;stroke-linecap:round;stroke-linejoin:round;stroke-miterlimit:10;" d="
					M72.047,150.664l-1.511,9.045c0,0,0.246,3.604-6.076,11.494c-6.322,7.89-9.165,4.414-13.497,0
					c-4.333-4.414-5.274-6.259-5.248-12.499c0,0-2.224-0.319-3.59-4.394c-1.366-4.075,3.631-5.629,4.89-3.04l7.531-3.66l4.65-5.597
					l2.663-3.55l5.46,2.032l5.782,3.497L72.047,150.664z"/>
				
					<path style="fill:none;stroke:#263238;stroke-width:0.75;stroke-linecap:round;stroke-linejoin:round;stroke-miterlimit:10;" d="
					M65.365,159.99c0,0-2.326,2.39-0.382,4.697c2.637,3.13-2.9,2.164-2.909,3.102"/>
				
					<path style="fill:none;stroke:#263238;stroke-width:0.75;stroke-linecap:round;stroke-linejoin:round;stroke-miterlimit:10;" d="
					M55.662,166.135c0.015-0.266,4.48,3.288,4.48,3.288l0,0c-0.887,1.464-3.051,1.438-3.853-0.073
					C55.865,168.551,55.582,167.5,55.662,166.135z"/>
				<path style="fill:#263238;" d="M61.716,158.903c-0.334,0.778-0.852,1.302-1.157,1.171c-0.305-0.131-0.282-0.868,0.051-1.645
					c0.334-0.778,0.852-1.302,1.157-1.171C62.073,157.389,62.05,158.125,61.716,158.903z"/>
				<path style="fill:#263238;" d="M68.598,161.596c-0.299,0.697-0.763,1.166-1.037,1.049c-0.274-0.117-0.253-0.777,0.046-1.474
					c0.299-0.697,0.763-1.166,1.037-1.049C68.918,160.239,68.897,160.899,68.598,161.596z"/>
				
					<path style="fill:none;stroke:#263238;stroke-width:0.75;stroke-linecap:round;stroke-linejoin:round;stroke-miterlimit:10;" d="
					M63.885,153.708c0,0-2.038-1.766-5.037,0.066"/>
				
					<path style="fill:none;stroke:#263238;stroke-width:0.75;stroke-linecap:round;stroke-linejoin:round;stroke-miterlimit:10;" d="
					M68.58,155.38c0,0,1.322,0.384,1.535,1.637"/>
				
					<path style="fill:#263238;stroke:#263238;stroke-width:0.75;stroke-linecap:round;stroke-linejoin:round;stroke-miterlimit:10;" d="
					M47.434,147.611c0,0-3.267,8.322,1.253,11.941c0,0,3.754-10.737,11.534-11.941c7.779-1.204,10.955-3.618,10.955-3.618
					s-0.927,10.585,1.189,13.191c2.116,2.607,2.085-12.187,2.085-12.187l-2.085-5.089l-11.201-4.5l-9.647,4.534L47.434,147.611z"/>
				
					<path style="fill:#263238;stroke:#263238;stroke-width:0.75;stroke-linecap:round;stroke-linejoin:round;stroke-miterlimit:10;" d="
					M45.439,160.101c0,0-2.675,11.027,0.853,11.949c3.529,0.922-3.912-0.655-8.367-2.716c-4.455-2.061,5.892-10.378,5.892-10.378
					L45.439,160.101z"/>
			</g>
		</g>
		<g>
			<polygon style="fill:#FFFFFF;stroke:#263238;stroke-linecap:round;stroke-linejoin:round;stroke-miterlimit:10;" points="
				157.792,173.479 154.753,170.439 163.947,152.431 175.8,164.285 			"/>
			
				<path style="fill:#263238;stroke:#263238;stroke-width:0.75;stroke-linecap:round;stroke-linejoin:round;stroke-miterlimit:10;" d="
				M175.735,164.197c-0.762,0.762-3.999-1.24-7.23-4.472c-3.231-3.231-5.233-6.468-4.472-7.23c0.762-0.762,3.999,1.24,7.23,4.472
				C174.495,160.199,176.497,163.436,175.735,164.197z"/>
			<path style="fill:none;stroke:#263238;stroke-linecap:round;stroke-linejoin:round;stroke-miterlimit:10;" d="M173.88,140.556
				c0.796,2.031,0.555,4.351-0.204,6.396c-0.759,2.045-2.001,3.87-3.23,5.672"/>
			<path style="fill:none;stroke:#263238;stroke-linecap:round;stroke-linejoin:round;stroke-miterlimit:10;" d="M175.841,158.8
				c3.332-3.016,8.518-3.782,12.58-1.859"/>
			<path style="fill:none;stroke:#263238;stroke-linecap:round;stroke-linejoin:round;stroke-miterlimit:10;" d="M178.632,153.388
				c-0.374-0.838-0.755-2.615-0.787-3.532c-0.032-0.917,0.368-1.911,1.194-2.311c1.364-0.66,2.847,0.543,3.95,1.583
				c1.103,1.039,2.851,2.025,3.998,1.035c1.085-0.936,0.521-2.681-0.056-3.993c-0.577-1.311-0.912-3.19,0.343-3.88"/>
			<path style="fill:none;stroke:#263238;stroke-linecap:round;stroke-linejoin:round;stroke-miterlimit:10;" d="M167.461,134.455
				c-0.142,0.07-0.281,0.145-0.418,0.224c-2.337,1.343-2.559,4.522-0.679,6.453c0.019,0.02,0.038,0.04,0.057,0.06
				c0.242,0.261,0.432,0.574,0.534,0.915c0.413,1.391-0.588,2.303-1.513,3.063c-0.708,0.582-1.468,1.238-1.623,2.141
				c-0.155,0.903,0.743,1.968,1.577,1.589"/>
			<rect x="181.113" y="136.248" style="fill:#263238;" width="3.418" height="3.418"/>
			<rect x="183.88" y="163.265" style="fill:#263238;" width="3.418" height="3.418"/>
			<rect x="192.153" y="148.319" style="fill:#263238;" width="3.418" height="3.418"/>
			<rect x="159.603" y="139.856" style="fill:#263238;" width="3.418" height="3.418"/>
			<g>
				<path style="fill:none;stroke:#263238;stroke-linecap:round;stroke-linejoin:round;stroke-miterlimit:10;" d="M169.994,167.248
					c-3.201-4.059-5.438-8.813-6.507-13.908c-0.009-0.027-0.014-0.05-0.018-0.078"/>
				<path style="fill:none;stroke:#263238;stroke-linecap:round;stroke-linejoin:round;stroke-miterlimit:10;" d="M159.862,160.436
					c1.201,3.379,2.931,6.538,5.132,9.369"/>
				<path style="fill:none;stroke:#263238;stroke-linecap:round;stroke-linejoin:round;stroke-miterlimit:10;" d="M159.994,172.358
					c-1.315-1.717-2.456-3.552-3.42-5.488"/>
			</g>
		</g>
	</g>
</g>
<g id="Friend_3">
	<g>
		<g>
			<path style="fill:#FFFFFF;stroke:#263238;stroke-linecap:round;stroke-linejoin:round;stroke-miterlimit:10;" d="M231.588,88.113
				v56.763l12.488-13.231h136.626c5.828-0.007,10.549-4.734,10.549-10.562V88.138c0-0.004,0-0.008,0-0.013
				c0-5.826-4.723-10.549-10.549-10.549H242.15C236.327,77.576,231.602,82.29,231.588,88.113z"/>
			
				<line style="fill:none;stroke:#263238;stroke-width:2;stroke-linecap:round;stroke-linejoin:round;" x1="308.606" y1="90.153" x2="339.373" y2="90.153"/>
			
				<line style="fill:none;stroke:#263238;stroke-linecap:round;stroke-linejoin:round;" x1="280.772" y1="100.878" x2="339.373" y2="100.878"/>
			
				<line style="fill:none;stroke:#263238;stroke-linecap:round;stroke-linejoin:round;" x1="280.772" y1="109.741" x2="339.373" y2="109.741"/>
			
				<line style="fill:none;stroke:#263238;stroke-linecap:round;stroke-linejoin:round;" x1="280.772" y1="119.535" x2="314.525" y2="119.535"/>
		</g>
		<g>
			<g>
				<g>
					
						<ellipse transform="matrix(0.3744 -0.9273 0.9273 0.3744 137.3438 413.1358)" style="fill:#92E3A9;" cx="374.836" cy="104.786" rx="28.361" ry="28.361"/>
					
						<ellipse transform="matrix(0.3744 -0.9273 0.9273 0.3744 137.3438 413.1358)" style="fill:#92E3A9;stroke:#263238;stroke-linecap:round;stroke-linejoin:round;stroke-miterlimit:10;" cx="374.836" cy="104.786" rx="28.361" ry="28.361"/>
				</g>
				<g>
					<defs>
						<path id="XMLID_3_" d="M376.163,133.193c4.187-0.318,6.063-0.615,7.909-1.494l-1.683-8.578l-13.362,0.794l-0.512,8.398
							C371.011,133.03,373.445,133.399,376.163,133.193z"/>
					</defs>
					<use xlink:href="#XMLID_3_"  style="overflow:visible;fill:#FFFFFF;"/>
					<clipPath id="XMLID_00000021099303639255242860000011204838068553751189_">
						<use xlink:href="#XMLID_3_"  style="overflow:visible;"/>
					</clipPath>
					
						<path style="clip-path:url(#XMLID_00000021099303639255242860000011204838068553751189_);fill:#263238;stroke:#263238;stroke-width:0.75;stroke-linecap:round;stroke-linejoin:round;stroke-miterlimit:10;" d="
						M366.405,123.285c2.43,4.048,6.001,6.613,9.991,6.613c3.99,0,7.56-2.565,9.991-6.613H366.405z"/>
					
						<use xlink:href="#XMLID_3_"  style="overflow:visible;fill:none;stroke:#263238;stroke-width:0.75;stroke-linecap:round;stroke-linejoin:round;stroke-miterlimit:10;"/>
				</g>
				
					<path style="fill:#FFFFFF;stroke:#263238;stroke-width:0.75;stroke-linecap:round;stroke-linejoin:round;stroke-miterlimit:10;" d="
					M390.811,108.157c-0.552-0.271-1.174-0.299-1.79-0.133c-0.358-10.208-6.698-18.338-14.469-18.338s-14.111,8.13-14.469,18.338
					c-0.616-0.166,0.333-0.552-0.219-0.281c-1.518,0.747-1.892,2.689-1.453,4.535c0.427,1.795,1.731,3.583,3.076,3.515
					c2.08,7.243,6.883,12.39,13.065,12.39c6.182,0,11.455-5.147,13.536-12.389c1.344,0.068,2.835-0.92,3.649-2.576
					C392.744,111.17,392.33,108.904,390.811,108.157z"/>
				
					<path style="fill:none;stroke:#263238;stroke-width:0.75;stroke-linecap:round;stroke-linejoin:round;stroke-miterlimit:10;" d="
					M372.109,110.192l-0.115,0.552c-0.361,1.734-1.04,3.385-2.002,4.872l0,0l2.91,1.588"/>
				<path style="fill:#263238;" d="M367.06,109.905c0,0.767-0.296,1.389-0.661,1.389s-0.661-0.622-0.661-1.389
					c0-0.767,0.296-1.389,0.661-1.389S367.06,109.138,367.06,109.905z"/>
				<path style="fill:#263238;" d="M378.106,109.905c0,0.767-0.296,1.389-0.661,1.389c-0.365,0-0.661-0.622-0.661-1.389
					c0-0.767,0.296-1.389,0.661-1.389C377.81,108.516,378.106,109.138,378.106,109.905z"/>
				
					<path style="fill:none;stroke:#263238;stroke-width:0.75;stroke-linecap:round;stroke-linejoin:round;stroke-miterlimit:10;" d="
					M364.425,106.308c0,0,1.587-3.287,5.424-2.348"/>
				
					<path style="fill:none;stroke:#263238;stroke-width:0.75;stroke-linecap:round;stroke-linejoin:round;stroke-miterlimit:10;" d="
					M382.26,106.044c0,0-1.588-3.287-5.424-2.347"/>
				
					<line style="fill:#FFFFFF;stroke:#263238;stroke-width:0.75;stroke-linecap:round;stroke-linejoin:round;stroke-miterlimit:10;" x1="363.098" y1="106.446" x2="360.159" y2="106.446"/>
				<g>
					
						<rect x="363.711" y="106.446" style="fill:none;stroke:#263238;stroke-width:0.75;stroke-linecap:round;stroke-linejoin:round;stroke-miterlimit:10;" width="8.164" height="5.261"/>
					
						<rect x="375.45" y="106.446" style="fill:none;stroke:#263238;stroke-width:0.75;stroke-linecap:round;stroke-linejoin:round;stroke-miterlimit:10;" width="8.164" height="5.261"/>
					
						<line style="fill:none;stroke:#263238;stroke-width:0.75;stroke-linecap:round;stroke-linejoin:round;stroke-miterlimit:10;" x1="371.875" y1="107.988" x2="375.45" y2="107.988"/>
					
						<line style="fill:#FFFFFF;stroke:#263238;stroke-width:0.75;stroke-linecap:round;stroke-linejoin:round;stroke-miterlimit:10;" x1="388.518" y1="106.446" x2="383.614" y2="106.446"/>
				</g>
				
					<path style="fill:#263238;stroke:#263238;stroke-width:0.75;stroke-linecap:round;stroke-linejoin:round;stroke-miterlimit:10;" d="
					M361.102,107.988c1.045,0.1-0.591-4.105,2.407-10.56c2.019-4.346,7.821-3.163,14.763-2.988c7.12,0.18,8.524,11.6,9.139,16.433
					c0.038,0.294,0.749-3.219,0.96-3.212c3.175,0.102,2.155-16.035-1.417-16.545c0,0-2.866-5.443-13.906-4.989
					c-11.04,0.454-12.509,7.438-12.509,7.438S355.115,107.414,361.102,107.988z"/>
			</g>
			<path style="fill:none;stroke:#263238;stroke-width:0.75;stroke-linecap:round;stroke-linejoin:round;stroke-miterlimit:10;" d="
				M377.512,117.775c0.056,1.238,0.044,2.496-0.266,3.705c-0.525,2.047-2.046,2.472-3.131,2.507c-1.977,0.063-3.804-3.08-3.122-5.03
				C370.993,118.956,374.841,119.429,377.512,117.775z"/>
			
				<path style="fill:#FFFFFF;stroke:#263238;stroke-width:0.75;stroke-linecap:round;stroke-linejoin:round;stroke-miterlimit:10;" d="
				M361.488,107.709c0.756,1.141-0.124,3.155-0.241,4.518c-0.155,1.797,1.01,5.91,1.823,7.521"/>
		</g>
		<g>
			<g>
				
					<rect x="254.954" y="98.029" transform="matrix(1 0.0049 -0.0049 1 0.5114 -1.2449)" style="fill:#FFFFFF;stroke:#263238;stroke-linecap:round;stroke-linejoin:round;stroke-miterlimit:10;" width="2.777" height="13.109"/>
				<path style="fill:#FFFFFF;stroke:#263238;stroke-linecap:round;stroke-linejoin:round;stroke-miterlimit:10;" d="
					M256.408,91.082c0,0,4.341,4.814-0.034,6.947C256.374,98.029,252.811,96.458,256.408,91.082z"/>
				
					<path style="fill:#263238;stroke:#263238;stroke-width:0.75;stroke-linecap:round;stroke-linejoin:round;stroke-miterlimit:10;" d="
					M256.569,94.285c0,0,1.731,2.161-0.195,3.744C256.374,98.029,254.817,96.411,256.569,94.285z"/>
			</g>
			
				<rect x="243.289" y="104.677" transform="matrix(1 0.0049 -0.0049 1 0.5579 -1.2437)" style="fill:#263238;stroke:#263238;stroke-width:0.75;stroke-linecap:round;stroke-linejoin:round;stroke-miterlimit:10;" width="26.366" height="19.236"/>
			<g>
				
					<path style="fill:#FFFFFF;stroke:#263238;stroke-width:0.75;stroke-linecap:round;stroke-linejoin:round;stroke-miterlimit:10;" d="
					M242.431,104.564l-0.04,8.235c-0.003,0.622,0.8,1.006,1.424,0.681l3.227-1.684c0.319-0.166,0.724-0.155,1.029,0.03l1.566,0.944
					c1.508,0.909,3.512,0.951,5.067,0.105l1.862-1.013c0.325-0.177,0.746-0.165,1.057,0.03l1.064,0.666
					c1.66,1.038,3.932,0.997,5.534-0.101l0.715-0.49c0.311-0.214,0.749-0.234,1.087-0.052l3.11,1.679
					c0.621,0.335,1.431-0.041,1.434-0.665l0.04-8.228c0.002-0.438-0.414-0.795-0.93-0.798l-26.308-0.128
					C242.853,103.773,242.433,104.126,242.431,104.564z"/>
				<path style="fill:#FFFFFF;stroke:#263238;stroke-linecap:round;stroke-linejoin:round;stroke-miterlimit:10;" d="
					M242.431,104.564l-0.04,8.235c-0.003,0.622,0.8,1.006,1.424,0.681l3.227-1.684c0.319-0.166,0.724-0.155,1.029,0.03l1.566,0.944
					c1.508,0.909,3.512,0.951,5.067,0.105l1.862-1.013c0.325-0.177,0.746-0.165,1.057,0.03l1.064,0.666
					c1.66,1.038,3.932,0.997,5.534-0.101l0.715-0.49c0.311-0.214,0.749-0.234,1.087-0.052l3.11,1.679
					c0.621,0.335,1.431-0.041,1.434-0.665l0.04-8.228c0.002-0.438-0.414-0.795-0.93-0.798l-26.308-0.128
					C242.853,103.773,242.433,104.126,242.431,104.564z"/>
			</g>
		</g>
	</g>
</g>
<g id="Floor">
	<polyline style="fill:none;stroke:#263238;stroke-linecap:round;stroke-linejoin:round;stroke-miterlimit:10;" points="
		463.362,451.917 287.884,451.917 237.175,451.917 36.638,451.917 	"/>
</g>
<g id="Clock">
	<g id="freepik--Clock--inject-2">
		
			<ellipse transform="matrix(0.9941 -0.1088 0.1088 0.9941 -8.6428 21.8871)" style="fill:none;stroke:#263238;stroke-linecap:round;stroke-linejoin:round;" cx="196.216" cy="90.132" rx="25.015" ry="25.015"/>
		
			<ellipse transform="matrix(0.9923 -0.1238 0.1238 0.9923 -9.6451 24.9822)" style="fill:none;stroke:#263238;stroke-linecap:round;stroke-linejoin:round;" cx="196.225" cy="90.111" rx="20.728" ry="20.728"/>
		<polyline style="fill:none;stroke:#263238;stroke-linecap:round;stroke-linejoin:round;" points="202.54,73.869 196.217,90.128 
			196.216,78.669 		"/>
	</g>
</g>
</svg>
